<svg width="16" height="16" viewBox="0 0 16 16" fill="none" xmlns="http://www.w3.org/2000/svg">
<path d="M9.81106 12.7823L5.15207 7.90633C5.09677 7.84828 5.05769 7.7854 5.03484 7.71768C5.01161 7.64996 5 7.5774 5 7.5C5 7.4226 5.01161 7.35004 5.03484 7.28232C5.05769 7.2146 5.09677 7.15171 5.15207 7.09367L9.81106 2.20317C9.94009 2.06772 10.1014 2 10.2949 2C10.4885 2 10.6544 2.07256 10.7926 2.21768C10.9309 2.3628 11 2.5321 11 2.72559C11 2.91909 10.9309 3.08839 10.7926 3.23351L6.72811 7.5L10.7926 11.7665C10.9217 11.9019 10.9862 12.0687 10.9862 12.2669C10.9862 12.4654 10.9171 12.6372 10.7788 12.7823C10.6406 12.9274 10.4793 13 10.2949 13C10.1106 13 9.94931 12.9274 9.81106 12.7823Z" fill="#101D3E"/>
</svg>
