<svg width="16" height="16" viewBox="0 0 16 16" fill="none" xmlns="http://www.w3.org/2000/svg">
<path d="M6.68894 2.21768L11.3479 7.09367C11.4032 7.15172 11.4423 7.2146 11.4652 7.28232C11.4884 7.35004 11.5 7.4226 11.5 7.5C11.5 7.5774 11.4884 7.64996 11.4652 7.71768C11.4423 7.7854 11.4032 7.84828 11.3479 7.90633L6.68894 12.7968C6.55991 12.9323 6.39862 13 6.20507 13C6.01152 13 5.84562 12.9274 5.70737 12.7823C5.56913 12.6372 5.5 12.4679 5.5 12.2744C5.5 12.0809 5.56913 11.9116 5.70737 11.7665L9.77189 7.5L5.70737 3.23351C5.57834 3.09806 5.51383 2.93127 5.51382 2.73314C5.51382 2.53462 5.58295 2.3628 5.7212 2.21768C5.85945 2.07256 6.02074 2 6.20507 2C6.3894 2 6.55069 2.07256 6.68894 2.21768Z" fill="#101D3E"/>
</svg>
