<?xml version="1.0" encoding="UTF-8"?>
<!DOCTYPE svg PUBLIC "-//W3C//DTD SVG 1.1//EN" "http://www.w3.org/Graphics/SVG/1.1/DTD/svg11.dtd">
<svg xmlns="http://www.w3.org/2000/svg" version="1.1" width="512px" height="512px" style="shape-rendering:geometricPrecision; text-rendering:geometricPrecision; image-rendering:optimizeQuality; fill-rule:evenodd; clip-rule:evenodd" xmlns:xlink="http://www.w3.org/1999/xlink">
<g><path style="opacity:0.995" fill="#00ba00" d="M 236.5,31.5 C 330.292,27.8034 401.792,65.4701 451,144.5C 488.338,215.521 489.672,287.188 455,359.5C 411.22,436.666 344.72,476.999 255.5,480.5C 169.749,477.065 104.583,439.065 60,366.5C 30.2246,311.189 23.5579,253.189 40,192.5C 64.8333,115.667 115.667,64.8333 192.5,40C 207.121,36.1748 221.788,33.3415 236.5,31.5 Z M 335.5,175.5 C 351.697,175.199 361.03,183.032 363.5,199C 363.148,203.389 361.982,207.556 360,211.5C 321.861,250.639 283.361,289.472 244.5,328C 234.61,336.748 223.944,337.748 212.5,331C 192.667,311.167 172.833,291.333 153,271.5C 145.667,261.5 145.667,251.5 153,241.5C 162.388,232.646 172.888,231.146 184.5,237C 198.167,250.667 211.833,264.333 225.5,278C 226.5,278.667 227.5,278.667 228.5,278C 261.167,245.333 293.833,212.667 326.5,180C 329.437,178.199 332.437,176.699 335.5,175.5 Z"/></g>
</svg>
