<svg width="21" height="20" viewBox="0 0 21 20" fill="none" xmlns="http://www.w3.org/2000/svg">
<mask id="mask0_1406_6986" style="mask-type:alpha" maskUnits="userSpaceOnUse" x="0" y="0" width="21" height="20">
<rect x="0.5" width="20" height="20" fill="#D9D9D9"/>
</mask>
<g mask="url(#mask0_1406_6986)">
<path d="M15.7439 15.5834H7.25678C6.89137 15.5834 6.57671 15.4515 6.31283 15.1876C6.04894 14.9237 5.91699 14.609 5.91699 14.2436V2.75654C5.91699 2.39112 6.04894 2.07647 6.31283 1.81258C6.57671 1.54869 6.89137 1.41675 7.25678 1.41675H13.7087L17.0837 4.79175V14.2436C17.0837 14.609 16.9517 14.9237 16.6878 15.1876C16.4239 15.4515 16.1093 15.5834 15.7439 15.5834ZM12.917 5.58342V2.50008H7.25678C7.19262 2.50008 7.13387 2.52682 7.08053 2.58029C7.02706 2.63362 7.00033 2.69237 7.00033 2.75654V14.2436C7.00033 14.3078 7.02706 14.3665 7.08053 14.4199C7.13387 14.4733 7.19262 14.5001 7.25678 14.5001H15.7439C15.808 14.5001 15.8668 14.4733 15.9201 14.4199C15.9736 14.3665 16.0003 14.3078 16.0003 14.2436V5.58342H12.917ZM4.25678 18.5834C3.89137 18.5834 3.57671 18.4515 3.31283 18.1876C3.04894 17.9237 2.91699 17.609 2.91699 17.2436V6.41675H4.00033V17.2436C4.00033 17.3078 4.02706 17.3665 4.08053 17.4199C4.13387 17.4733 4.19262 17.5001 4.25678 17.5001H13.0837V18.5834H4.25678Z" fill="#101D3E"/>
</g>
</svg>
