<svg id="SvgjsSvg1001" width="288" height="288" xmlns="http://www.w3.org/2000/svg" version="1.1" xmlns:xlink="http://www.w3.org/1999/xlink" xmlns:svgjs="http://svgjs.com/svgjs">
  <defs id="SvgjsDefs1002"></defs>
  <g id="SvgjsG1008">
    <svg xmlns="http://www.w3.org/2000/svg" enable-background="new 0 0 40 40" viewBox="0 0 40 40" width="288" height="288">
      <g class="layer">
        <!-- Modificado para agregar stroke y stroke-width -->
        <path fill="#f0f0f0" stroke="white" stroke-width="1" d="m23,16.5c-0.1,0 -0.3,0 -0.4,-0.1l-2.6,-2.7l-2.6,2.6c-0.2,0.2 -0.5,0.2 -0.7,0s-0.2,-0.5 0,-0.7l3,-3c0.2,-0.2 0.5,-0.2 0.7,0l3,3c0.2,0.2 0.2,0.5 0,0.7c-0.1,0.2 -0.3,0.2 -0.4,0.2z" class="colorfff svgShape" transform="rotate(180, 20, 20) translate(0, 6)"></path>
        <path fill="#f0f0f0" stroke="white" stroke-width="1" d="m20,22c-0.3,0 -0.5,-0.2 -0.5,-0.5l0,-8c0,-0.3 0.2,-0.5 0.5,-0.5s0.5,0.2 0.5,0.5l0,8c0,0.3 -0.2,0.5 -0.5,0.5z" class="colorfff svgShape" transform="rotate(180, 20, 20) translate(0, 6)"></path>
        <g>
          <path fill="#f0f0f0" stroke="white" stroke-width="1" d="m25,27.5l-10,0c-1.4,0 -2.5,-1.1 -2.5,-2.5l0,-2c0,-0.3 0.2,-0.5 0.5,-0.5s0.5,0.2 0.5,0.5l0,2c0,0.8 0.7,1.5 1.5,1.5l10,0c0.8,0 1.5,-0.7 1.5,-1.5l0,-2c0,-0.3 0.2,-0.5 0.5,-0.5s0.5,0.2 0.5,0.5l0,2c0,1.4 -1.1,2.5 -2.5,2.5z" class="colorfff svgShape"></path>
        </g>
      </g>
    </svg>
  </g>
</svg>
