<svg width="329" height="123" viewBox="0 0 329 123" fill="none" xmlns="http://www.w3.org/2000/svg">
<path d="M324.392 108.803L325.298 109.708C326.115 109.112 327.043 108.803 328.036 108.803V110.636C327.285 110.636 326.623 110.901 326.093 111.431C325.563 111.961 325.298 112.623 325.298 113.374V117.946H323.465V108.803H324.37H324.392Z" fill="#4A4A49"/>
<path d="M320.039 110.128C319.885 109.973 319.708 109.841 319.554 109.708C318.935 109.267 318.273 108.979 317.544 108.869C317.301 108.825 317.058 108.803 316.815 108.803C316.572 108.803 316.329 108.803 316.086 108.869C315.357 108.979 314.695 109.267 314.077 109.73C313.9 109.863 313.745 109.995 313.591 110.15C312.707 111.055 312.266 112.137 312.266 113.396C312.266 114.655 312.707 115.737 313.591 116.643C313.745 116.797 313.922 116.93 314.077 117.062C314.673 117.504 315.335 117.791 316.064 117.902H316.108C316.329 117.924 316.572 117.946 316.815 117.946C317.058 117.946 317.301 117.924 317.522 117.902H317.566C318.295 117.791 318.957 117.504 319.554 117.062L320.459 117.968H321.364V113.396C321.364 112.137 320.923 111.055 320.039 110.15M316.793 116.135C316.042 116.135 315.38 115.87 314.85 115.34C314.319 114.81 314.054 114.147 314.054 113.396C314.054 112.645 314.319 111.983 314.85 111.453C315.38 110.923 316.042 110.658 316.793 110.658C317.544 110.658 318.206 110.923 318.736 111.453C319.266 111.983 319.531 112.645 319.531 113.396C319.531 114.147 319.266 114.81 318.736 115.34C318.206 115.87 317.544 116.135 316.793 116.135Z" fill="#4A4A49"/>
<path d="M310.146 104.231H308.312V117.946H310.146V104.231Z" fill="#4A4A49"/>
<path d="M305.464 104.231C305.773 104.231 306.06 104.342 306.259 104.562C306.479 104.761 306.59 105.026 306.59 105.358C306.59 105.689 306.479 105.932 306.259 106.13C306.038 106.351 305.773 106.462 305.464 106.462C305.154 106.462 304.889 106.351 304.691 106.13C304.47 105.932 304.359 105.667 304.359 105.358C304.359 105.048 304.47 104.783 304.691 104.562C304.889 104.342 305.154 104.231 305.464 104.231ZM306.369 117.946H304.536V108.803H306.369V117.946Z" fill="#4A4A49"/>
<path d="M300.626 113.485V108.803H302.459V117.946H301.554L300.648 117.018C299.831 117.614 298.904 117.946 297.91 117.946C296.651 117.946 295.569 117.504 294.664 116.598C293.758 115.693 293.316 114.633 293.316 113.352V108.781H295.149V113.352C295.149 114.103 295.414 114.765 295.944 115.295C296.475 115.825 297.137 116.091 297.888 116.091C298.639 116.091 299.257 115.826 299.787 115.318C300.317 114.81 300.604 114.191 300.626 113.44" fill="#4A4A49"/>
<path d="M291.217 108.803V122.517H289.384V117.04C288.567 117.637 287.64 117.968 286.646 117.968C285.387 117.968 284.305 117.526 283.399 116.643C282.516 115.737 282.074 114.677 282.074 113.396C282.074 112.115 282.516 111.055 283.399 110.15C284.305 109.267 285.387 108.825 286.646 108.825C287.662 108.825 288.589 109.134 289.384 109.73L290.29 108.825H291.195L291.217 108.803ZM286.646 116.113C287.397 116.113 288.059 115.848 288.589 115.318C289.119 114.788 289.384 114.125 289.384 113.374C289.384 112.623 289.119 111.961 288.589 111.431C288.059 110.901 287.397 110.636 286.646 110.636C285.895 110.636 285.232 110.901 284.702 111.431C284.172 111.961 283.907 112.623 283.907 113.374C283.907 114.125 284.172 114.788 284.702 115.318C285.232 115.848 285.895 116.113 286.646 116.113Z" fill="#4A4A49"/>
<path d="M279.976 104.231H278.143V117.946H279.976V104.231Z" fill="#4A4A49"/>
<path d="M274.698 110.128C274.543 109.973 274.366 109.841 274.212 109.708C273.593 109.267 272.931 108.979 272.202 108.869C271.959 108.825 271.716 108.803 271.473 108.803C271.23 108.803 270.987 108.803 270.744 108.869C270.016 108.979 269.353 109.267 268.735 109.73C268.558 109.863 268.404 109.995 268.249 110.15C267.366 111.055 266.924 112.137 266.924 113.396C266.924 114.655 267.366 115.737 268.249 116.643C268.404 116.797 268.58 116.93 268.735 117.062C269.331 117.504 269.994 117.791 270.722 117.902H270.767C270.987 117.924 271.23 117.946 271.473 117.946C271.716 117.946 271.959 117.924 272.18 117.902H272.224C272.953 117.791 273.615 117.504 274.212 117.062L275.117 117.968H276.023V113.396C276.023 112.137 275.581 111.055 274.698 110.15M271.451 116.135C270.7 116.135 270.038 115.87 269.508 115.34C268.978 114.81 268.713 114.147 268.713 113.396C268.713 112.645 268.978 111.983 269.508 111.453C270.038 110.923 270.7 110.658 271.451 110.658C272.202 110.658 272.865 110.923 273.395 111.453C273.925 111.983 274.19 112.645 274.19 113.396C274.19 114.147 273.925 114.81 273.395 115.34C272.865 115.87 272.202 116.135 271.451 116.135Z" fill="#4A4A49"/>
<path d="M258.596 110.128C258.441 109.973 258.265 109.841 258.11 109.708C257.492 109.267 256.829 108.979 256.1 108.869C255.858 108.825 255.615 108.803 255.372 108.803C255.129 108.803 254.886 108.803 254.643 108.869C253.914 108.979 253.252 109.267 252.633 109.73C252.457 109.863 252.302 109.995 252.147 110.15C251.264 111.055 250.822 112.137 250.822 113.396C250.822 114.655 251.264 115.737 252.147 116.643C252.302 116.797 252.479 116.93 252.633 117.062C253.229 117.504 253.892 117.791 254.621 117.902H254.665C254.908 117.924 255.129 117.946 255.372 117.946C255.615 117.946 255.858 117.924 256.078 117.902H256.123C256.851 117.791 257.514 117.504 258.11 117.062L259.016 117.968H259.921V113.396C259.921 112.137 259.479 111.055 258.596 110.15M255.35 116.135C254.599 116.135 253.936 115.87 253.406 115.34C252.876 114.81 252.611 114.147 252.611 113.396C252.611 112.645 252.876 111.983 253.406 111.453C253.936 110.923 254.599 110.658 255.35 110.658C256.1 110.658 256.763 110.923 257.293 111.453C257.823 111.983 258.088 112.645 258.088 113.396C258.088 114.147 257.823 114.81 257.293 115.34C256.763 115.87 256.1 116.135 255.35 116.135Z" fill="#4A4A49"/>
<path d="M246.14 108.803L247.046 109.708C247.863 109.112 248.791 108.803 249.784 108.803V110.636C249.034 110.636 248.371 110.901 247.841 111.431C247.311 111.961 247.046 112.623 247.046 113.374V117.946H245.213V108.803H246.118H246.14Z" fill="#4A4A49"/>
<path d="M241.789 110.128C241.635 109.973 241.458 109.841 241.304 109.708C240.685 109.267 240.023 108.979 239.294 108.869C239.051 108.825 238.808 108.803 238.565 108.803C238.322 108.803 238.079 108.803 237.836 108.869C237.13 108.979 236.445 109.267 235.827 109.73C235.65 109.863 235.495 109.995 235.341 110.15C234.435 111.055 234.016 112.137 234.016 113.396C234.016 114.655 234.457 115.737 235.341 116.643C235.495 116.797 235.672 116.93 235.827 117.062C236.423 117.504 237.085 117.791 237.814 117.902H237.858C238.079 117.924 238.322 117.946 238.565 117.946C238.808 117.946 239.051 117.924 239.272 117.902H239.316C240.045 117.791 240.707 117.504 241.304 117.062L242.209 117.968H243.114V113.396C243.114 112.137 242.673 111.055 241.789 110.15M238.543 116.135C237.792 116.135 237.13 115.87 236.6 115.34C236.069 114.81 235.804 114.147 235.804 113.396C235.804 112.645 236.069 111.983 236.6 111.453C237.13 110.923 237.792 110.658 238.543 110.658C239.294 110.658 239.956 110.923 240.486 111.453C241.016 111.983 241.281 112.645 241.281 113.396C241.281 114.147 241.016 114.81 240.486 115.34C239.956 115.87 239.294 116.135 238.543 116.135Z" fill="#4A4A49"/>
<path d="M227.3 108.803C228.559 108.803 229.641 109.244 230.546 110.128C231.43 111.033 231.872 112.093 231.872 113.374C231.872 114.655 231.43 115.715 230.546 116.621C229.641 117.504 228.559 117.946 227.3 117.946C226.284 117.946 225.379 117.636 224.562 117.018V122.495H222.729V108.781H223.634L224.539 109.686C225.334 109.09 226.262 108.781 227.278 108.781M227.278 110.614C226.527 110.614 225.865 110.879 225.334 111.409C224.804 111.939 224.539 112.601 224.539 113.352C224.539 114.103 224.804 114.765 225.334 115.295C225.865 115.825 226.527 116.091 227.278 116.091C228.029 116.091 228.691 115.825 229.221 115.295C229.751 114.765 230.016 114.103 230.016 113.352C230.016 112.601 229.751 111.939 229.221 111.409C228.691 110.879 228.029 110.614 227.278 110.614Z" fill="#4A4A49"/>
<path d="M210.648 112.115C210.449 111.386 210.515 110.68 210.913 110.017C211.376 109.134 212.127 108.67 213.143 108.648C214.137 108.582 214.932 108.979 215.55 109.774L214.027 110.79C213.85 110.547 213.585 110.415 213.254 110.437C212.9 110.437 212.657 110.614 212.525 110.901C212.392 111.144 212.37 111.386 212.414 111.607C212.459 111.85 212.613 112.027 212.856 112.137L214.38 112.954C215.064 113.33 215.484 113.86 215.683 114.589C215.882 115.318 215.815 116.024 215.44 116.687C214.954 117.57 214.225 118.012 213.209 118.056C212.216 118.1 211.421 117.725 210.802 116.93L212.326 115.914C212.503 116.157 212.768 116.289 213.121 116.267C213.474 116.267 213.695 116.09 213.85 115.803C213.982 115.56 214.004 115.34 213.96 115.097C213.916 114.854 213.762 114.677 213.519 114.567L211.995 113.75C211.31 113.374 210.868 112.844 210.67 112.115" fill="#E30613"/>
<path d="M207.092 110.128C206.938 109.973 206.761 109.841 206.606 109.708C205.988 109.267 205.325 108.979 204.597 108.869C204.354 108.825 204.111 108.803 203.868 108.803C203.625 108.803 203.382 108.803 203.139 108.869C202.432 108.979 201.748 109.267 201.129 109.73C200.953 109.863 200.798 109.995 200.643 110.15C199.738 111.055 199.318 112.137 199.318 113.396C199.318 114.655 199.76 115.737 200.643 116.643C200.798 116.797 200.975 116.93 201.129 117.062C201.726 117.504 202.388 117.791 203.117 117.902H203.161C203.382 117.924 203.625 117.946 203.868 117.946C204.111 117.946 204.354 117.924 204.574 117.902H204.619C205.347 117.791 206.01 117.504 206.606 117.062L207.512 117.968H208.417V113.396C208.417 112.137 207.976 111.055 207.092 110.15M203.846 116.135C203.095 116.135 202.432 115.87 201.902 115.34C201.372 114.81 201.107 114.147 201.107 113.396C201.107 112.645 201.372 111.983 201.902 111.453C202.432 110.923 203.095 110.658 203.846 110.658C204.597 110.658 205.259 110.923 205.789 111.453C206.319 111.983 206.584 112.645 206.584 113.396C206.584 114.147 206.319 114.81 205.789 115.34C205.259 115.87 204.597 116.135 203.846 116.135Z" fill="#E30613"/>
<path d="M198.125 106.992L194.724 108.427L194.26 107.61L197.197 105.402L198.102 106.97L198.125 106.992ZM197.109 117.946H195.276V108.803H197.109V117.946Z" fill="#E30613"/>
<path d="M192.516 108.803V110.636H190.683V114.059C190.683 114.633 190.881 115.119 191.279 115.516C191.676 115.914 192.162 116.113 192.714 116.113V117.946C191.632 117.946 190.727 117.57 189.976 116.819C189.225 116.069 188.85 115.141 188.85 114.059V104.231H190.683V108.803H192.516Z" fill="#E30613"/>
<path d="M179.44 113.264V117.946H177.607V108.803H178.513L179.418 109.73C180.235 109.134 181.163 108.803 182.157 108.803C183.416 108.803 184.498 109.244 185.403 110.15C186.287 111.055 186.728 112.115 186.728 113.396V117.968H184.895V113.396C184.895 112.645 184.63 111.983 184.1 111.453C183.57 110.923 182.908 110.658 182.157 110.658C181.406 110.658 180.788 110.923 180.258 111.431C179.728 111.939 179.44 112.557 179.418 113.308" fill="#E30613"/>
<path d="M174.162 110.128C174.008 109.973 173.831 109.841 173.677 109.708C173.058 109.267 172.396 108.979 171.667 108.869C171.424 108.825 171.181 108.803 170.938 108.803C170.695 108.803 170.452 108.803 170.209 108.869C169.481 108.979 168.818 109.267 168.2 109.73C168.023 109.863 167.868 109.995 167.714 110.15C166.83 111.055 166.389 112.137 166.389 113.396C166.389 114.655 166.83 115.737 167.714 116.643C167.868 116.797 168.045 116.93 168.2 117.062C168.796 117.504 169.458 117.791 170.187 117.902H170.231C170.474 117.924 170.695 117.946 170.938 117.946C171.181 117.946 171.424 117.924 171.645 117.902H171.689C172.418 117.791 173.08 117.504 173.677 117.062L174.582 117.968H175.488V113.396C175.488 112.137 175.046 111.055 174.162 110.15M170.916 116.135C170.165 116.135 169.503 115.87 168.973 115.34C168.443 114.81 168.178 114.147 168.178 113.396C168.178 112.645 168.443 111.983 168.973 111.453C169.503 110.923 170.165 110.658 170.916 110.658C171.667 110.658 172.329 110.923 172.859 111.453C173.389 111.983 173.654 112.645 173.654 113.396C173.654 114.147 173.389 114.81 172.859 115.34C172.329 115.87 171.667 116.135 170.916 116.135Z" fill="#E30613"/>
<path d="M161.705 108.803L162.61 109.708C163.427 109.112 164.355 108.803 165.349 108.803V110.636C164.598 110.636 163.935 110.901 163.405 111.431C162.875 111.961 162.61 112.623 162.61 113.374V117.946H160.777V108.803H161.683H161.705Z" fill="#E30613"/>
<path d="M157.354 110.128C157.199 109.973 157.023 109.841 156.868 109.708C156.25 109.267 155.587 108.979 154.858 108.869C154.615 108.825 154.372 108.803 154.129 108.803C153.887 108.803 153.644 108.803 153.401 108.869C152.694 108.979 152.009 109.267 151.391 109.73C151.214 109.863 151.06 109.995 150.905 110.15C150 111.055 149.58 112.137 149.58 113.396C149.58 114.655 150.022 115.737 150.905 116.643C151.06 116.797 151.236 116.93 151.391 117.062C151.987 117.504 152.65 117.791 153.379 117.902H153.423C153.644 117.924 153.887 117.946 154.129 117.946C154.372 117.946 154.615 117.924 154.836 117.902H154.88C155.609 117.791 156.272 117.504 156.868 117.062L157.773 117.968H158.679V113.396C158.679 112.137 158.237 111.055 157.354 110.15M154.107 116.135C153.357 116.135 152.694 115.87 152.164 115.34C151.634 114.81 151.369 114.147 151.369 113.396C151.369 112.645 151.634 111.983 152.164 111.453C152.694 110.923 153.357 110.658 154.107 110.658C154.858 110.658 155.521 110.923 156.051 111.453C156.581 111.983 156.846 112.645 156.846 113.396C156.846 114.147 156.581 114.81 156.051 115.34C155.521 115.87 154.858 116.135 154.107 116.135Z" fill="#E30613"/>
<path d="M140.569 110.172H147.415C147.415 112.689 146.73 114.589 145.405 115.936C144.08 117.283 142.468 117.946 140.569 117.946C138.67 117.946 137.057 117.261 135.732 115.936C134.407 114.611 133.723 112.977 133.723 111.099C133.723 109.222 134.407 107.588 135.732 106.263C137.057 104.916 138.692 104.253 140.569 104.253C142.446 104.253 144.08 104.916 145.405 106.263L144.102 107.566C143.131 106.572 141.938 106.086 140.547 106.086C139.155 106.086 137.963 106.572 137.013 107.566C136.019 108.538 135.534 109.73 135.534 111.121C135.534 112.513 136.019 113.705 137.013 114.677C137.985 115.671 139.178 116.157 140.547 116.157C141.916 116.157 143.131 115.671 144.102 114.677C144.831 113.97 145.295 113.087 145.494 112.049H140.547V110.216L140.569 110.172Z" fill="#E30613"/>
<mask id="mask0_1555_169512" style="mask-type:luminance" maskUnits="userSpaceOnUse" x="295" y="31" width="34" height="25">
<path d="M307.186 37.4696L301.113 31.3964H295.039V42.7699L308.114 55.844C308.975 53.2601 310.455 50.9191 312.509 48.8652C316.021 45.3538 320.394 43.5208 328.499 43.5208V31.3743C318.693 31.3743 312.642 33.4281 307.164 37.4475" fill="white"/>
</mask>
<g mask="url(#mask0_1555_169512)">
<path d="M328.521 31.3962H295.061V55.8439H328.521V31.3962Z" fill="url(#paint0_linear_1555_169512)"/>
</g>
<path d="M295.039 92.0847H307.186V63.9048L295.039 51.9128V92.0847Z" fill="#4A4A49"/>
<path d="M268.293 74.6157L276.906 83.2287C270.965 89.1695 263.787 92.0846 255.417 92.0846C247.046 92.0846 239.868 89.1695 233.927 83.2287C227.986 77.288 225.07 70.1105 225.07 61.7404C225.07 53.3704 227.986 46.1929 233.927 40.2522C239.868 34.3114 247.046 31.3962 255.417 31.3962C263.787 31.3962 270.965 34.3114 276.906 40.2522C284.548 48.0259 287.353 57.2573 285.277 67.8137H238.167C239.139 70.3534 240.597 72.6723 242.54 74.6157C246.052 78.1493 250.425 79.9602 255.417 79.9602C260.408 79.9602 264.759 78.1493 268.293 74.6157ZM242.562 48.8872C240.619 50.9411 239.161 53.1275 238.189 55.6893H272.666C271.804 53.1495 270.369 50.9632 268.293 48.8872C264.781 45.3758 260.408 43.5428 255.417 43.5428C250.425 43.5428 246.074 45.3537 242.54 48.8872" fill="#4A4A49"/>
<path d="M207.116 40.2523C206.056 39.1922 204.974 38.2868 203.847 37.4255V37.4696C199.761 34.4661 195.344 32.5669 190.574 31.7939C190.529 31.7939 190.463 31.7939 190.419 31.7718C189.712 31.6614 189.005 31.573 188.299 31.5289C187.437 31.4626 186.554 31.4185 185.648 31.4185C184.743 31.4185 183.815 31.4626 182.932 31.5289C182.38 31.573 181.827 31.6393 181.275 31.7276C181.01 31.7718 180.767 31.7939 180.502 31.8381C175.754 32.6331 171.403 34.5103 167.449 37.4917H167.427C166.301 38.3309 165.219 39.2364 164.181 40.2744C158.24 46.2151 155.324 53.3926 155.324 61.7626C155.324 70.1327 158.24 77.3102 164.181 83.2509C165.241 84.311 166.323 85.2165 167.449 86.0778V86.0336C171.535 89.0371 175.953 90.9364 180.723 91.7093C180.767 91.7093 180.834 91.7093 180.878 91.7314C181.585 91.8418 182.291 91.9302 182.998 91.9743C183.859 92.0406 184.743 92.0848 185.648 92.0848C186.554 92.0848 187.482 92.0406 188.365 91.9743C188.939 91.9302 189.491 91.8639 190.044 91.7756C190.286 91.7314 190.551 91.7093 190.794 91.6651C195.543 90.8701 199.894 88.9929 203.847 86.0115H203.869L209.921 92.0848H215.995V61.7406C215.995 53.3705 213.079 46.193 207.138 40.2523M203.869 61.7406C203.869 66.7096 202.058 71.0823 198.525 74.6159C195.013 78.1273 190.64 79.9603 185.648 79.9603C180.657 79.9603 176.306 78.1494 172.772 74.6159C172.33 74.1742 171.911 73.7325 171.535 73.2466C169.305 70.5744 168.002 67.4605 167.582 64.0153C167.494 63.2644 167.427 62.5135 167.427 61.7406C167.427 56.7715 169.238 52.3988 172.772 48.8653C176.284 45.3538 180.657 43.5208 185.648 43.5208C190.64 43.5208 194.991 45.3317 198.525 48.8653C198.944 49.2849 199.32 49.7045 199.695 50.1462C201.97 52.8405 203.317 55.9765 203.715 59.4438C203.803 60.1946 203.869 60.9455 203.869 61.7185V61.7406Z" fill="#4A4A49"/>
<path d="M97.6122 61.0116V92.0846H85.4648V31.3962H91.5385L97.6122 37.4695C103.067 33.4722 109.141 31.3962 115.811 31.3962C124.182 31.3962 131.36 34.3114 137.301 40.2522C143.242 46.1929 146.157 53.3704 146.157 61.7404V92.0846H134.01V61.7404C134.01 56.7714 132.199 52.3987 128.665 48.8651C125.153 45.3537 120.78 43.5207 115.789 43.5207C110.798 43.5207 106.69 45.2212 103.156 48.6222C99.6441 52.0232 97.7005 56.153 97.568 61.0116" fill="#4A4A49"/>
<path d="M60.3535 7.9425C60.3535 5.86655 61.0823 4.03353 62.5399 2.68637C63.887 1.22879 65.7201 0.5 67.796 0.5C69.872 0.5 71.5725 1.22879 72.9196 2.68637C74.3772 4.14395 75.106 5.86655 75.106 7.9425C75.106 10.0184 74.3772 11.719 72.9196 13.0661C71.5725 14.5237 69.872 15.2525 67.796 15.2525C65.7201 15.2525 64.0196 14.5237 62.5399 13.0661C61.0823 11.719 60.3535 10.0184 60.3535 7.9425Z" fill="#4A4A49"/>
<path d="M73.3399 31.3962H61.1934V92.0846H73.3399V31.3962Z" fill="#4A4A49"/>
<path d="M52.093 1.052V13.1764H12.6473V40.495H39.9457V52.6416H12.6473V92.0846H0.5V1.052H52.093Z" fill="#4A4A49"/>
<defs>
<linearGradient id="paint0_linear_1555_169512" x1="324.506" y1="36.5914" x2="299.058" y2="43.0829" gradientUnits="userSpaceOnUse">
<stop stop-color="#E30613"/>
<stop offset="1" stop-color="#9F040D"/>
</linearGradient>
</defs>
</svg>
