<svg width="80" height="23" viewBox="0 0 80 23" fill="none" xmlns="http://www.w3.org/2000/svg">
<g clip-path="url(#clip0_2129_1192)">
<path d="M65.3111 18.077L67.4118 20.1778C65.9628 21.6267 64.2122 22.3377 62.1708 22.3377C60.1293 22.3377 58.3787 21.6267 56.9297 20.1778C55.4807 18.7288 54.7697 16.9782 54.7697 14.9367C54.7697 12.8952 55.4807 11.1446 56.9297 9.69567C58.3787 8.24671 60.1293 7.53569 62.1708 7.53569C64.2122 7.53569 65.9628 8.24671 67.4118 9.69567C69.2755 11.5917 69.9596 13.8433 69.4533 16.418H57.9639C58.2009 17.0374 58.5564 17.603 59.0304 18.077C59.8869 18.9389 60.9534 19.3806 62.1708 19.3806C63.3881 19.3806 64.4492 18.9389 65.3111 18.077ZM59.0358 11.8018C58.5618 12.3027 58.2063 12.836 57.9693 13.4608H66.3776C66.1675 12.8414 65.8174 12.3081 65.3111 11.8018C64.4546 10.9453 63.3881 10.4983 62.1708 10.4983C60.9534 10.4983 59.8923 10.9399 59.0304 11.8018" fill="#4A4A49"/>
<mask id="mask0_2129_1192" style="mask-type:luminance" maskUnits="userSpaceOnUse" x="71" y="7" width="9" height="7">
<path d="M74.7967 9.01697L73.3154 7.53569H71.8341V10.3097L75.0229 13.4985C75.233 12.8683 75.5939 12.2973 76.0948 11.7964C76.9512 10.9399 78.0178 10.4929 79.9946 10.4929V7.5303C77.603 7.5303 76.1271 8.03125 74.7913 9.01159" fill="white"/>
</mask>
<g mask="url(#mask0_2129_1192)">
<path d="M80 7.53569H71.8395V13.4985H80V7.53569Z" fill="url(#paint0_linear_2129_1192)"/>
</g>
<path d="M71.8341 22.3377H74.7967V15.4646L71.8341 12.5397V22.3377Z" fill="#4A4A49"/>
<path d="M23.6844 14.759V22.3377H20.7218V7.53569H22.2031L23.6844 9.01697C25.0148 8.04202 26.4961 7.53569 28.1228 7.53569C30.1643 7.53569 31.9149 8.24671 33.3639 9.69567C34.8128 11.1446 35.5238 12.8952 35.5238 14.9367V22.3377H32.5613V14.9367C32.5613 13.7248 32.1196 12.6582 31.2578 11.7964C30.4013 10.9399 29.3348 10.4929 28.1174 10.4929C26.9001 10.4929 25.8982 10.9076 25.0364 11.7371C24.1799 12.5667 23.7059 13.5739 23.6736 14.759" fill="#4A4A49"/>
<path d="M50.3905 9.69567C50.132 9.43712 49.868 9.21627 49.5933 9.0062V9.01697C48.5968 8.28441 47.5195 7.82117 46.356 7.63265C46.3453 7.63265 46.3291 7.63265 46.3183 7.62726C46.146 7.60033 45.9736 7.57878 45.8012 7.56801C45.5912 7.55185 45.3757 7.54108 45.1549 7.54108C44.934 7.54108 44.7078 7.55185 44.4923 7.56801C44.3577 7.57878 44.223 7.59494 44.0883 7.61649C44.0237 7.62726 43.9644 7.63265 43.8998 7.64342C42.7417 7.83733 41.6806 8.29518 40.7164 9.02236H40.711C40.4363 9.22704 40.1724 9.44789 39.9192 9.70106C38.4702 11.15 37.7592 12.9006 37.7592 14.9421C37.7592 16.9836 38.4702 18.7342 39.9192 20.1831C40.1777 20.4417 40.4417 20.6625 40.7164 20.8726V20.8618C41.7129 21.5944 42.7902 22.0576 43.9537 22.2462C43.9644 22.2462 43.9806 22.2462 43.9914 22.2516C44.1637 22.2785 44.3361 22.3 44.5085 22.3108C44.7185 22.327 44.934 22.3377 45.1549 22.3377C45.3757 22.3377 45.6019 22.327 45.8174 22.3108C45.9574 22.3 46.0921 22.2839 46.2268 22.2623C46.286 22.2516 46.3507 22.2462 46.4099 22.2354C47.568 22.0415 48.6291 21.5836 49.5933 20.8565H49.5987L51.0746 22.3377H52.5559V14.9367C52.5559 12.8952 51.8449 11.1446 50.3959 9.69567M49.5987 14.9367C49.5987 16.1487 49.157 17.2152 48.2952 18.077C47.4387 18.9335 46.3722 19.3806 45.1549 19.3806C43.9375 19.3806 42.8764 18.9389 42.0145 18.077C41.9068 17.9693 41.8045 17.8616 41.7129 17.7431C41.1689 17.0913 40.8511 16.3318 40.7487 15.4915C40.7272 15.3084 40.711 15.1252 40.711 14.9367C40.711 13.7248 41.1527 12.6582 42.0145 11.7964C42.871 10.9399 43.9375 10.4929 45.1549 10.4929C46.3722 10.4929 47.4333 10.9346 48.2952 11.7964C48.3975 11.8987 48.4891 12.0011 48.5807 12.1088C49.1355 12.766 49.464 13.5308 49.561 14.3765C49.5825 14.5597 49.5987 14.7428 49.5987 14.9313V14.9367Z" fill="#4A4A49"/>
<path d="M12.5828 0.134659V3.09184H2.96256V9.75491H9.62025V12.7175H2.96256V22.3377H0V0.134659H12.5828Z" fill="#4A4A49"/>
<path d="M14.5974 1.81524C14.5974 1.30891 14.7751 0.861837 15.1306 0.533262C15.4592 0.177754 15.9063 0 16.4126 0C16.9189 0 17.3337 0.177754 17.6623 0.533262C18.0178 0.888769 18.1955 1.30891 18.1955 1.81524C18.1955 2.32157 18.0178 2.73633 17.6623 3.06491C17.3337 3.42041 16.9189 3.59817 16.4126 3.59817C15.9063 3.59817 15.4915 3.42041 15.1306 3.06491C14.7751 2.73633 14.5974 2.32157 14.5974 1.81524Z" fill="#4A4A49"/>
<path d="M17.7646 7.53569H14.802V22.3377H17.7646V7.53569Z" fill="#4A4A49"/>
</g>
<defs>
<linearGradient id="paint0_linear_2129_1192" x1="79.0207" y1="8.80279" x2="72.8142" y2="10.3859" gradientUnits="userSpaceOnUse">
<stop stop-color="#E30613"/>
<stop offset="1" stop-color="#AB0A14"/>
</linearGradient>
<clipPath id="clip0_2129_1192">
<rect width="80" height="23" fill="white"/>
</clipPath>
</defs>
</svg>
