<?xml version="1.0" encoding="UTF-8"?>
<!DOCTYPE svg PUBLIC "-//W3C//DTD SVG 1.1//EN" "http://www.w3.org/Graphics/SVG/1.1/DTD/svg11.dtd">
<svg xmlns="http://www.w3.org/2000/svg" version="1.1" width="512px" height="512px" style="shape-rendering:geometricPrecision; text-rendering:geometricPrecision; image-rendering:optimizeQuality; fill-rule:evenodd; clip-rule:evenodd" xmlns:xlink="http://www.w3.org/1999/xlink">
<g><path style="opacity:0.996" fill="#f4c300" d="M 244.5,41.5 C 331.26,40.7801 397.094,77.1135 442,150.5C 472.829,208.447 477.495,268.447 456,330.5C 423.16,409.524 364.327,455.357 279.5,468C 196.979,474.477 130.812,444.977 81,379.5C 39.6305,317.549 30.9639,251.215 55,180.5C 82.9727,112.255 132.473,68.0885 203.5,48C 217.175,44.9418 230.842,42.7751 244.5,41.5 Z M 250.5,149.5 C 263.829,148.072 272.329,153.739 276,166.5C 276.667,204.5 276.667,242.5 276,280.5C 270.102,296.692 259.269,301.192 243.5,294C 239.266,290.361 236.432,285.861 235,280.5C 234.333,242.5 234.333,204.5 235,166.5C 237.256,158.081 242.423,152.415 250.5,149.5 Z M 249.5,320.5 C 264.992,318.829 273.992,325.662 276.5,341C 274.204,355.964 265.537,362.63 250.5,361C 239.434,357.031 234.268,349.197 235,337.5C 237.188,329.486 242.021,323.819 249.5,320.5 Z"/></g>
</svg>
