<?xml version="1.0" ?><!DOCTYPE svg  PUBLIC '-//W3C//DTD SVG 20010904//EN'  'http://www.w3.org/TR/2001/REC-SVG-20010904/DTD/svg10.dtd'><svg xmlns="http://www.w3.org/2000/svg" version="1.0" width="1024.000000pt" height="1024.000000pt" viewBox="0 0 1024.000000 1024.000000" preserveAspectRatio="xMidYMid meet"><defs><linearGradient id="redGradient" x1="0%" y1="0%" x2="100%" y2="0%"><stop offset="0%" style="stop-color:rgb(159,4,13);stop-opacity:1"/><stop offset="100%" style="stop-color:rgb(227,6,19);stop-opacity:1"/></linearGradient></defs>

<g transform="translate(0.000000,1024.000000) scale(0.100000,-0.100000)" fill="#000000" stroke="none">
<path d="M2268 6900 c-21 -16 -31 -42 -53 -140 l-28 -120 -71 -22 c-39 -12 -102 -34 -140 -50 l-69 -28 -54 42 c-123 97 -131 100 -181 74 -15 -8 -87 -75 -159 -149 -101 -101 -133 -140 -133 -159 0 -15 26 -65 60 -117 l59 -91 -43 -87 c-25 -49 -50 -107 -57 -131 -7 -23 -17 -47 -24 -52 -6 -5 -58 -19 -115 -32 -156 -33 -150 -22 -150 -267 0 -227 4 -246 59 -261 20 -5 70 -19 113 -31 l76 -21 32 -77 c18 -42 47 -102 66 -134 19 -32 34 -65 34 -75 0 -9 -23 -56 -51 -105 -36 -65 -49 -96 -45 -113 8 -29 106 -136 199 -216 47 -40 76 -58 95 -58 15 0 63 23 110 54 l83 54 73 -28 c39 -15 104 -37 142 -49 l71 -21 19 -97 c11 -59 26 -105 36 -115 16 -16 40 -18 198 -18 214 0 209 -2 234 116 10 44 19 86 22 95 4 14 237 99 272 99 7 0 49 -25 95 -55 78 -53 116 -65 145 -46 37 23 253 248 259 269 4 17 -9 51 -45 120 l-50 97 23 30 c13 17 48 75 77 130 l53 100 96 21 c152 34 139 11 139 243 0 165 -3 201 -15 211 -9 7 -50 22 -92 34 l-76 21 -35 63 c-18 34 -40 62 -47 62 -7 0 -69 -60 -138 -133 l-124 -133 -6 -99 c-19 -337 -269 -619 -609 -689 -168 -35 -326 -14 -485 64 -93 45 -118 64 -198 143 -79 78 -99 106 -139 187 -64 131 -80 201 -81 340 0 136 16 206 76 328 100 204 279 353 496 413 146 41 369 22 492 -40 68 -35 84 -30 163 54 39 41 83 92 99 112 37 49 38 94 4 121 -24 19 -177 79 -216 85 -32 5 -37 17 -63 142 -19 90 -31 124 -47 138 -19 15 -45 17 -214 17 -176 0 -194 -2 -217 -20z" fill="url(#redGradient)"/>
<path d="M3292 6518 c-86 -89 -313 -333 -761 -818 -63 -69 -118 -126 -122 -128 -4 -2 -63 51 -132 117 -174 165 -193 168 -322 42 -80 -79 -91 -100 -82 -159 6 -31 40 -70 244 -274 265 -265 288 -282 366 -258 50 15 32 -3 705 704 287 302 525 559 528 572 12 46 -7 73 -131 188 -164 153 -158 152 -293 14z" fill="url(#redGradient)"/>
<path d="M6592 6242 l-94 -3 4 -184 c3 -171 0 -202 -17 -175 -4 6 -30 23 -58 38 -48 25 -61 27 -162 27 -100 0 -115 -3 -166 -27 -145 -72 -216 -207 -207 -399 4 -81 10 -107 35 -162 61 -130 164 -197 311 -205 99 -5 155 8 220 54 26 19 49 34 52 34 3 0 4 -16 2 -35 l-4 -35 96 0 96 0 0 534 c0 294 -3 536 -7 538 -5 2 -50 2 -101 0z m-173 -482 c21 -10 51 -34 66 -51 26 -32 26 -34 23 -160 -4 -147 -9 -159 -105 -205 -107 -53 -237 -16 -287 81 -32 61 -34 167 -6 233 25 58 76 108 118 118 15 3 32 8 37 10 22 8 119 -8 154 -26z" fill="url(#redGradient)"/>
<path d="M7170 6234 c-94 -18 -156 -49 -210 -103 -144 -145 -107 -380 74 -465 28 -13 100 -38 161 -56 60 -17 127 -41 148 -53 91 -51 88 -159 -6 -209 -84 -46 -276 -22 -381 47 -23 15 -25 15 -34 -2 -16 -33 -55 -144 -51 -147 25 -19 87 -48 144 -67 60 -21 89 -24 205 -24 130 0 137 1 200 31 126 60 184 151 184 289 0 57 -5 81 -27 127 -46 94 -110 135 -290 187 -123 36 -182 62 -197 90 -15 30 -12 89 7 122 28 47 73 62 172 57 80 -4 111 -13 226 -64 6 -2 23 31 40 74 16 42 31 80 33 83 4 9 -107 56 -160 68 -55 13 -202 22 -238 15z" fill="url(#redGradient)"/>
<path d="M4120 5691 l0 -521 100 0 100 0 2 183 3 182 86 3 87 3 27 -48 c15 -26 64 -110 108 -185 l82 -138 108 0 c91 0 108 2 104 14 -3 8 -58 96 -121 194 -64 99 -116 182 -116 185 0 3 20 17 44 31 135 79 192 249 134 403 -28 77 -103 152 -183 184 -56 22 -75 24 -312 27 l-253 4 0 -521z m419 348 c53 -10 72 -19 105 -49 38 -36 40 -41 44 -106 3 -60 1 -74 -20 -103 -12 -19 -34 -42 -48 -53 -34 -25 -123 -39 -217 -36 l-78 3 -3 165 c-1 90 0 170 2 177 7 17 124 17 215 2z" fill="url(#redGradient)"/>
<path d="M8750 5947 c-153 -35 -236 -154 -201 -287 22 -82 89 -130 237 -170 97 -26 141 -51 150 -85 23 -91 -143 -125 -295 -61 -35 15 -64 26 -65 24 -1 -2 -14 -32 -29 -67 -31 -75 -33 -73 73 -118 59 -25 76 -28 185 -28 111 0 124 2 170 27 97 51 145 125 145 220 0 65 -26 125 -70 161 -40 34 -76 49 -180 76 -104 27 -138 45 -146 76 -22 89 127 123 263 61 31 -15 57 -25 58 -24 2 2 13 32 26 67 22 62 22 64 4 77 -66 48 -227 73 -325 51z" fill="url(#redGradient)"/>
<path d="M5290 5941 c-83 -26 -174 -96 -215 -165 -68 -116 -71 -307 -6 -434 49 -96 172 -176 292 -190 128 -15 237 8 325 69 48 33 48 35 2 111 l-29 47 -65 -31 c-164 -77 -321 -33 -369 101 -8 24 -15 45 -15 47 0 2 124 4 275 4 l275 0 6 26 c8 33 -2 150 -18 195 -35 104 -117 183 -222 214 -52 16 -193 19 -236 6z m187 -152 c15 -6 39 -20 52 -32 24 -22 60 -91 61 -114 0 -10 -44 -13 -190 -13 l-189 0 14 39 c20 59 44 90 84 111 40 21 124 26 168 9z" fill="url(#redGradient)"/>
<path d="M7660 5936 c0 -9 8 -33 19 -54 10 -20 60 -136 111 -257 51 -121 114 -270 141 -331 l49 -112 -56 -133 c-30 -74 -62 -144 -70 -156 l-14 -23 105 0 106 0 20 48 c11 26 92 223 180 437 88 215 175 427 195 472 19 45 37 89 40 98 5 13 -9 15 -98 15 l-105 0 -99 -265 c-54 -146 -101 -265 -104 -265 -3 0 -27 60 -54 133 -26 72 -71 192 -99 265 l-51 132 -92 0 c-51 0 -99 3 -108 6 -11 4 -16 1 -16 -10z" fill="url(#redGradient)"/>
<path d="M4378 4860 c-67 -12 -163 -66 -208 -118 -63 -71 -84 -138 -85 -263 0 -102 1 -109 35 -175 42 -81 109 -141 197 -174 83 -31 232 -25 316 13 31 14 60 33 63 42 8 19 -24 95 -39 95 -6 0 -35 -12 -66 -27 -70 -35 -183 -39 -242 -10 -89 44 -139 131 -139 239 0 85 19 137 69 189 84 86 205 101 326 40 l56 -28 19 38 c11 21 20 45 20 53 0 17 -57 57 -107 74 -46 15 -160 22 -215 12z" fill="#4B4A49"/>
<path d="M7580 4490 l0 -370 60 0 60 0 -2 368 -3 367 -57 3 -58 3 0 -371z" fill="#4B4A49"/>
<path d="M6145 4802 c-3 -3 -5 -36 -5 -74 l0 -68 -51 0 c-43 0 -50 -3 -45 -16 3 -9 6 -31 6 -50 0 -34 1 -34 44 -34 l44 0 4 -172 c3 -193 10 -217 67 -255 37 -25 127 -32 175 -13 23 8 26 15 26 59 l0 49 -59 -5 c-86 -8 -91 2 -91 189 l0 148 75 0 75 0 0 50 0 50 -75 0 -75 0 0 76 0 75 -55 -2 c-30 -1 -57 -5 -60 -7z" fill="#4B4A49"/>
<path d="M4975 4655 c-56 -21 -110 -67 -143 -123 -24 -42 -27 -56 -27 -142 0 -111 18 -155 86 -213 134 -115 348 -79 433 73 28 50 31 63 31 145 -1 73 -5 98 -22 131 -28 53 -71 96 -120 120 -50 24 -182 29 -238 9z m175 -107 c62 -33 83 -66 88 -141 3 -50 0 -72 -17 -104 -53 -105 -203 -117 -274 -21 -42 57 -29 196 23 243 21 19 85 44 115 45 12 0 41 -10 65 -22z" fill="#4B4A49"/>
<path d="M5652 4649 c-24 -12 -46 -28 -49 -35 -10 -26 -22 -14 -16 16 l6 30 -62 0 -61 0 0 -270 0 -270 60 0 60 0 0 165 c0 187 8 222 62 255 50 30 110 27 150 -9 l33 -29 3 -191 3 -191 60 0 61 0 -4 208 c-3 169 -6 213 -20 237 -21 40 -66 81 -101 94 -48 18 -137 13 -185 -10z" fill="#4B4A49"/>
<path d="M6707 4649 c-21 -11 -41 -27 -44 -34 -10 -27 -23 -15 -18 15 l5 30 -60 0 -60 0 0 -270 0 -270 58 0 59 0 1 165 c1 171 7 200 48 237 25 21 92 39 121 32 22 -6 23 -4 23 55 l0 61 -47 0 c-28 -1 -64 -9 -86 -21z" fill="#4B4A49"/>
<path d="M7090 4661 c-71 -23 -132 -75 -165 -141 -23 -44 -31 -161 -16 -217 15 -57 66 -121 124 -157 38 -23 62 -30 121 -34 128 -8 214 36 271 139 27 48 30 63 30 139 0 65 -5 96 -21 130 -24 53 -72 102 -123 127 -39 19 -178 28 -221 14z m179 -123 c42 -26 70 -88 71 -153 0 -102 -60 -165 -159 -165 -39 0 -66 6 -89 20 -83 51 -97 218 -24 283 54 49 136 54 201 15z" fill="#4B4A49"/>
</g>
</svg>