<svg width="48" height="48" viewBox="0 0 48 48" fill="none" xmlns="http://www.w3.org/2000/svg">
<mask id="mask0_1282_13601" style="mask-type:alpha" maskUnits="userSpaceOnUse" x="0" y="0" width="48" height="48">
<rect width="48" height="48" fill="#D9D9D9"/>
</mask>
<g mask="url(#mask0_1282_13601)">
<path d="M24 43C21.641 43 19.4308 42.559 17.3695 41.677C15.3078 40.795 13.5052 39.5822 11.9615 38.0385C10.4178 36.4948 9.205 34.6922 8.323 32.6305C7.441 30.5692 7 28.359 7 26C7 23.641 7.441 21.4308 8.323 19.3695C9.205 17.3078 10.4178 15.5052 11.9615 13.9615C13.5052 12.4178 15.3078 11.205 17.3695 10.323C19.4308 9.44099 21.641 8.99998 24 8.99998H25.15L21.346 5.19598L22.9155 3.64648L29.323 10.0345L22.954 16.423L21.3845 14.8425L24.977 11.2695H23.827C19.7243 11.2695 16.2723 12.7022 13.471 15.5675C10.67 18.4328 9.2695 21.9103 9.2695 26C9.2695 30.0897 10.7022 33.5672 13.5675 36.4325C16.4328 39.2978 19.9103 40.7305 24 40.7305C28.0897 40.7305 31.5672 39.2978 34.4325 36.4325C37.2978 33.5672 38.7305 30.0897 38.7305 26H41C41 28.359 40.559 30.5692 39.677 32.6305C38.795 34.6922 37.5822 36.4948 36.0385 38.0385C34.4948 39.5822 32.6922 40.795 30.6305 41.677C28.5692 42.559 26.359 43 24 43Z" fill="white"/>
</g>
</svg>
